# xmcd CD database file
#
# Track frame offsets:
#	150
#	34369
#	63884
#	98341
#	122863
#	160148
#	189817
#	215637
#	249270
#	283167
#	305804
#
# Disc length: 4549 seconds
#
# Revision: 1
# Processed by: cddbd v1.5.2PL0 Copyright (c) Steve Scherf et al.
# Submitted via: CDex 1.51
#
DISCID=9711c30b
DTITLE=Herbie Hancock - River - the joni letters
DYEAR=2007
DGENRE=Jazz
TTITLE0=Court and Spark - feat. Norah Jones
TTITLE1=Edith and the Kingpin - feat. Tina Turner
TTITLE2=Both Sides Now
TTITLE3=River - feat. Corinne Bailey Rae
TTITLE4=Sweet Bird
TTITLE5=Tea Leaf Prophecy - feat. Joni Mitchell
TTITLE6=Solitude
TTITLE7=Amelia - feat. Luciana Souza
TTITLE8=Nefertiti
TTITLE9=The Jungle Line - feat. Leonard Cohen
TTITLE10=A Case of You
EXTD=YEAR: 2007
EXTT0=
EXTT1=
EXTT2=
EXTT3=
EXTT4=
EXTT5=
EXTT6=
EXTT7=
EXTT8=
EXTT9=
EXTT10=
PLAYORDER=
